<?xml version="1.0" standalone="no"?>
<!DOCTYPE svg PUBLIC "-//W3C//DTD SVG 20010904//EN"
 "http://www.w3.org/TR/2001/REC-SVG-20010904/DTD/svg10.dtd">
<svg version="1.0" xmlns="http://www.w3.org/2000/svg"
 width="490.000000pt" height="490.000000pt" viewBox="0 0 490.000000 490.000000"
 preserveAspectRatio="xMidYMid meet">
<metadata>
Created by potrace 1.16, written by Peter Selinger 2001-2019
</metadata>
<g transform="translate(0.000000,490.000000) scale(0.100000,-0.100000)"
fill="#000000" stroke="none">
<path d="M2406 4199 c-36 -53 -42 -85 -27 -137 l6 -24 24 26 c30 32 38 32 72
0 l27 -26 8 48 c7 51 -3 80 -50 139 l-23 29 -37 -55z"/>
<path d="M2211 4158 c-22 -56 -23 -64 -11 -114 7 -30 16 -54 19 -54 4 0 15 16
25 35 22 40 26 41 68 19 l31 -16 -6 52 c-7 57 -13 67 -66 110 l-37 28 -23 -60z"/>
<path d="M2605 4179 c-42 -41 -48 -51 -53 -98 l-5 -52 38 18 c33 16 38 16 45
2 5 -9 18 -26 28 -39 l18 -22 13 55 c13 52 12 59 -11 118 l-25 63 -48 -45z"/>
<path d="M2794 4096 c-42 -19 -54 -31 -67 -65 -24 -59 -23 -64 21 -56 l38 6
15 -48 15 -48 28 47 c25 43 27 54 21 100 -13 91 -12 91 -71 64z"/>
<path d="M2037 4093 c-17 -60 -17 -114 -1 -145 31 -62 36 -63 54 -16 15 41 17
43 53 40 42 -4 43 -3 21 55 -14 35 -25 47 -62 63 -54 24 -59 25 -65 3z"/>
<path d="M2413 3998 l-32 -33 10 -123 c15 -183 7 -198 -15 -29 l-19 148 -38
19 -38 20 -20 -34 c-12 -18 -21 -40 -21 -47 0 -8 18 -76 41 -152 22 -77 38
-141 36 -143 -2 -2 -27 61 -56 140 -50 137 -54 144 -83 150 -46 9 -45 9 -63
-37 l-16 -43 64 -114 c115 -207 115 -212 -3 -35 -57 86 -88 124 -97 120 -8 -3
-25 -5 -38 -5 -20 0 -24 -6 -30 -51 l-7 -51 93 -94 c51 -51 91 -96 88 -99 -3
-2 -48 33 -100 79 l-95 83 -38 -19 c-35 -18 -38 -22 -32 -50 3 -17 6 -38 6
-47 0 -10 32 -35 85 -66 47 -27 85 -52 85 -57 0 -12 0 -12 -93 31 l-85 39 -32
-27 c-32 -26 -33 -28 -20 -67 7 -21 16 -43 20 -48 5 -5 39 -16 77 -25 l68 -16
-11 -35 -12 -35 -7 27 c-6 24 -13 28 -60 33 -62 8 -64 7 -88 -37 -18 -34 -18
-35 4 -73 l22 -37 59 6 c52 5 59 4 56 -11 -2 -12 -23 -22 -67 -33 -63 -15 -64
-16 -77 -60 -13 -43 -12 -46 14 -73 19 -20 33 -26 49 -22 22 5 23 3 23 -57 0
-55 -3 -66 -29 -93 -23 -24 -31 -45 -40 -107 -10 -69 -9 -81 10 -123 17 -38
23 -44 35 -34 11 9 14 39 14 123 0 83 4 117 15 132 8 10 15 43 16 74 3 100 17
124 18 30 0 -70 -3 -89 -19 -110 -16 -20 -20 -41 -20 -113 0 -74 3 -93 23
-122 12 -19 25 -35 29 -35 4 0 19 17 33 37 22 33 25 48 25 120 0 71 -3 87 -25
119 -22 32 -25 47 -24 118 1 70 2 76 10 41 4 -22 8 -60 8 -85 1 -27 9 -57 21
-75 17 -25 20 -47 20 -142 0 -61 4 -114 8 -117 5 -3 19 17 32 44 21 45 22 54
11 106 -17 89 -15 91 39 40 28 -26 85 -64 128 -84 75 -36 80 -37 192 -37 112
0 117 1 193 37 46 22 100 59 134 90 l56 53 -6 -35 c-19 -110 -18 -125 3 -173
12 -26 25 -45 31 -42 5 4 9 57 9 118 0 95 3 117 20 142 12 18 20 48 21 75 0
25 4 63 8 85 7 34 9 28 10 -44 1 -75 -2 -88 -24 -117 -22 -29 -25 -43 -25
-116 0 -73 3 -88 25 -121 14 -20 29 -37 33 -37 4 0 17 16 30 35 19 29 22 48
22 122 0 72 -4 93 -20 113 -16 21 -19 40 -19 110 1 72 3 79 10 45 4 -22 8 -61
8 -86 1 -25 8 -54 16 -65 10 -14 14 -48 15 -130 0 -135 14 -160 48 -89 20 42
21 51 11 123 -9 62 -17 83 -39 107 -24 25 -29 40 -32 93 -3 62 -3 63 22 57 19
-4 32 1 53 23 27 28 27 28 11 74 -13 38 -20 47 -47 52 -77 16 -107 27 -107 43
0 13 10 15 55 11 54 -5 55 -4 76 30 22 38 20 63 -8 99 -16 20 -24 21 -68 15
l-50 -7 -5 -45 -5 -45 -12 45 c-7 25 -13 50 -14 55 -1 6 29 17 66 25 68 15 68
15 83 59 14 43 14 43 -16 74 l-31 30 -81 -37 c-45 -20 -87 -35 -93 -33 -7 2
25 25 70 51 46 26 85 51 88 56 3 5 8 28 11 52 6 41 4 44 -30 62 l-35 19 -57
-49 c-31 -27 -72 -63 -93 -81 -70 -62 -52 -32 39 64 l92 97 -6 45 c-3 24 -7
45 -9 47 -1 1 -18 5 -38 9 l-36 7 -83 -126 c-46 -70 -85 -125 -86 -123 -2 2
30 64 71 138 72 129 75 137 64 170 -16 48 -23 52 -62 45 -35 -7 -35 -7 -94
-165 -32 -88 -59 -158 -61 -156 -2 1 18 74 43 160 48 162 50 185 17 226 l-19
23 -34 -20 -34 -20 -21 -145 c-23 -150 -29 -129 -15 46 l9 100 -32 33 -32 32
-31 -32z"/>
<path d="M2945 3953 c-34 -3 -44 -10 -67 -46 -15 -23 -25 -43 -23 -45 2 -3 19
-7 37 -11 30 -6 34 -11 39 -49 3 -23 8 -44 10 -47 3 -2 19 10 36 28 26 27 32
42 37 105 7 66 6 72 -11 70 -10 -1 -36 -3 -58 -5z"/>
<path d="M1877 3883 c5 -58 10 -73 36 -100 17 -18 34 -30 39 -27 4 3 8 22 8
44 0 40 11 50 56 50 31 0 30 8 -6 58 -29 40 -32 42 -85 42 l-54 0 6 -67z"/>
<path d="M1793 3757 c-24 -5 -43 -15 -43 -20 0 -6 7 -37 16 -69 13 -46 23 -62
49 -78 18 -11 36 -20 41 -20 5 0 8 21 6 47 -3 46 -2 49 34 68 l36 19 -37 33
c-41 36 -40 35 -102 20z"/>
<path d="M2995 3740 c-28 -29 -28 -30 -9 -45 10 -8 26 -17 34 -20 11 -4 14
-17 11 -56 l-3 -51 41 23 c42 23 49 37 67 126 6 30 4 32 -32 42 -60 17 -78 13
-109 -19z"/>
<path d="M1718 3530 c-27 -17 -48 -32 -48 -35 0 -3 11 -28 25 -56 25 -48 39
-59 97 -73 l27 -6 -14 47 -14 48 30 32 31 31 -40 21 c-23 12 -43 21 -44 21 -2
0 -24 -14 -50 -30z"/>
<path d="M3072 3542 l-32 -16 32 -33 c30 -31 31 -34 19 -74 -7 -22 -11 -43 -8
-45 2 -2 22 -1 43 4 33 7 43 15 66 57 15 28 28 55 28 62 0 14 -80 63 -101 62
-8 0 -29 -8 -47 -17z"/>
<path d="M1680 3283 l-40 -46 41 -48 c40 -47 42 -49 82 -43 23 4 43 8 45 10 2
1 -7 20 -19 42 l-23 39 23 37 c13 20 22 38 20 40 -2 2 -23 6 -46 9 -41 5 -45
3 -83 -40z"/>
<path d="M3094 3324 c-8 -3 -5 -18 10 -44 l21 -40 -22 -39 c-25 -44 -20 -51
41 -51 26 0 39 9 70 45 l38 46 -37 44 c-31 39 -41 45 -73 44 -20 0 -42 -3 -48
-5z"/>
<path d="M1732 3081 c-15 -4 -34 -27 -54 -64 -35 -64 -36 -62 39 -103 33 -17
35 -17 75 2 l41 20 -32 36 c-31 35 -31 36 -16 77 14 40 14 41 -8 40 -12 -1
-32 -4 -45 -8z"/>
<path d="M3125 3047 c13 -44 13 -45 -16 -73 -16 -15 -29 -31 -29 -34 0 -4 18
-15 40 -25 39 -17 41 -17 73 0 74 40 74 38 42 97 -36 68 -33 66 -82 74 l-42 6
14 -45z"/>
<path d="M2088 2558 c-9 -19 -26 -38 -37 -41 -17 -4 -21 -1 -21 21 l0 27 -22
-32 c-28 -40 -40 -41 -67 -5 l-20 27 -2 -45 c-1 -36 -2 -40 -8 -20 -5 16 -13
24 -24 22 -11 -2 -22 10 -33 35 l-17 38 -10 -48 c-7 -34 -6 -56 2 -73 10 -23
5 -30 -78 -112 -75 -73 -96 -101 -131 -173 -58 -122 -69 -197 -70 -480 l0
-237 73 -26 c156 -55 324 -93 512 -117 149 -19 512 -16 670 5 142 20 370 73
477 113 l68 25 0 237 c-1 286 -12 360 -71 481 -33 68 -59 102 -126 169 -81 79
-84 85 -73 110 7 19 8 44 2 77 l-9 49 -18 -38 c-14 -27 -23 -36 -36 -32 -13 5
-19 -1 -22 -22 -3 -19 -5 -14 -6 17 l-2 45 -27 -33 -28 -34 -27 34 c-23 29
-26 31 -27 11 0 -33 -38 -17 -58 25 l-17 35 -5 -29 -5 -29 -340 0 -340 0 -5
29 -5 29 -17 -35z"/>
</g>
</svg>
